<?xml version="1.0" standalone="no"?>
  <svg version="1.1"
      baseProfile="full"
     width="889px"
      height="735px"
     
      xmlns="http://www.w3.org/2000/svg"
      >
      <g xmlns="http://www.w3.org/2000/svg" xmlns:xlink="http://www.w3.org/1999/xlink">
      <g transform="rotate(0 447.0987578201295 367.2312672042848)"><svg id="1674321823346" opacity="1" fill="rgb(56, 189, 248)" viewBox="0 -64.80000305175781 64.1500015258789 64.7300033569336" width="657.537515640259" preserveAspectRatio="none" height="663.4825344085696" x="118.33" y="35.49"><path id="textPath" d="M31.32-0.07L31.32-5.83C21.17-6.19 12.53-12.24 8.35-20.88L31.32-34.13L31.32-40.82L6.41-26.42C5.98-28.37 5.76-30.38 5.76-32.40C5.76-46.80 17.06-58.46 31.32-59.04L31.32-64.80C13.90-64.22 0-49.97 0-32.40C0-14.90 13.90-0.65 31.32-0.07ZM33.48-0.07C35.42-0.14 37.37-0.36 39.24-0.79L39.24-20.02L58.03-30.89L59.04-32.18L64.15-38.81C61.27-53.42 47.95-64.80 33.48-64.80ZM39.24-26.64L39.24-58.18C48.17-55.80 55.22-48.96 57.89-40.18L54.14-35.28Z" style="cursor: move;"></path></svg></g><g transform="rotate(0 449.50000000000006 371.4990774536134)"><svg xmlns:dc="http://purl.org/dc/elements/1.1/" xmlns:cc="http://creativecommons.org/ns#" xmlns:rdf="http://www.w3.org/1999/02/22-rdf-syntax-ns#" xmlns:svg="http://www.w3.org/2000/svg" xmlns="http://www.w3.org/2000/svg" xmlns:sodipodi="http://sodipodi.sourceforge.net/DTD/sodipodi-0.dtd" xmlns:inkscape="http://www.inkscape.org/namespaces/inkscape" version="1.1" id="l26" x="88.25" y="5.89" viewBox="131.25 131.3000030517578 737.5 737.4000244140625" width="722.5000000000001" height="731.2181549072268" style="enable-background:new 0 0 1000 1000;" xml:space="preserve" class="injected-svg" data-src="/static/media/26.svg" xmlns:xlink="http://www.w3.org/1999/xlink" fill="rgb(56, 189, 248)" opacity="1" preserveAspectRatio="none"><style type="text/css" id="style3">
	#l26 .noFillSVG{fill:none;}
</style><switch id="switch5" transform="translate(-84.35,0)"><g id="g7"><g id="g9"><circle class="noFillSVG" cx="584.40002" cy="500" r="334.79999" id="circle11" style="fill:none"></circle><path class="noFillSVG" d="m 584.4,142.8 c -197,0 -357.2,160.2 -357.2,357.2 0,197 160.2,357.2 357.2,357.2 197,0 357.2,-160.2 357.2,-357.2 0,-197 -160.3,-357.2 -357.2,-357.2 z m 0,696.6 C 397.2,839.4 245,687.1 245,500 245,312.9 397.3,160.6 584.4,160.6 c 187.1,0 339.4,152.2 339.4,339.4 0,187.2 -152.3,339.4 -339.4,339.4 z" id="path13-469" inkscape:connector-curvature="0" style="fill:none"></path><path d="M 584.4,160.6 C 397.2,160.6 245,312.9 245,500 245,687.1 397.3,839.4 584.4,839.4 771.5,839.4 923.8,687.2 923.8,500 923.8,312.8 771.5,160.6 584.4,160.6 Z m 0,674.2 C 399.8,834.8 249.6,684.6 249.6,500 249.6,315.4 399.8,165.2 584.4,165.2 769,165.2 919.2,315.4 919.2,500 919.2,684.6 769,834.8 584.4,834.8 Z" id="path15-470" inkscape:connector-curvature="0"></path><path d="M 584.4,131.3 C 381,131.3 215.6,296.7 215.6,500 215.6,703.3 381,868.7 584.4,868.7 787.8,868.7 953.1,703.3 953.1,500 953.1,296.7 787.7,131.3 584.4,131.3 Z m 0,725.9 C 387.4,857.2 227.2,697 227.2,500 c 0,-197 160.2,-357.2 357.2,-357.2 197,0 357.2,160.2 357.2,357.2 0,197 -160.3,357.2 -357.2,357.2 z" id="path17-471" inkscape:connector-curvature="0"></path></g></g></switch></svg></g>
      </g>
  </svg>