<?xml version="1.0" standalone="no"?>
  <svg version="1.1"
      baseProfile="full"
     width="889px"
      height="735px"
     
      xmlns="http://www.w3.org/2000/svg"
      >
      <g xmlns="http://www.w3.org/2000/svg" xmlns:xlink="http://www.w3.org/1999/xlink">
      <g transform="rotate(0 444.5000082397462 367.7020181274416)"><svg id="1674321823346" opacity="1" fill="rgb(56, 189, 248)" viewBox="0 -64.80000305175781 64.1500015258789 64.7300033569336" width="692.8200164794924" preserveAspectRatio="none" height="699.0840362548831" x="98.09" y="18.16"><path id="textPath" d="M31.32-0.07L31.32-5.83C21.17-6.19 12.53-12.24 8.35-20.88L31.32-34.13L31.32-40.82L6.41-26.42C5.98-28.37 5.76-30.38 5.76-32.40C5.76-46.80 17.06-58.46 31.32-59.04L31.32-64.80C13.90-64.22 0-49.97 0-32.40C0-14.90 13.90-0.65 31.32-0.07ZM33.48-0.07C35.42-0.14 37.37-0.36 39.24-0.79L39.24-20.02L58.03-30.89L59.04-32.18L64.15-38.81C61.27-53.42 47.95-64.80 33.48-64.80ZM39.24-26.64L39.24-58.18C48.17-55.80 55.22-48.96 57.89-40.18L54.14-35.28Z" style="cursor: move;"></path></svg></g>
      </g>
  </svg>